<svg xmlns="http://www.w3.org/2000/svg" viewBox="0 0 66 66">
    <defs>
        <mask id="mask">
            <rect width="600" height="600" x="-300" y="-300" fill="white"/>
            <path fill="black" d="m-159.52 178.71c-1.3732-0.01-3.1515-0.1894-3.9518-0.39959-0.80037-0.2102-2.3257-0.80779-3.3897-1.328-1.1958-0.58468-2.517-1.5181-3.4602-2.4447-0.96981-0.9527-1.8557-2.1717-2.4312-3.3454-0.86432-1.7628-0.90538-1.9788-0.90538-4.7625 0-2.7454 0.0507-3.023 0.86633-4.7454 0.62877-1.3278 1.3921-2.3435 2.7838-3.7042 1.2392-1.2116 2.5387-2.1787 3.6737-2.734 0.96595-0.47257 2.5112-1.0654 3.4339-1.3175 1.1544-0.31531 2.6061-0.45287 4.6542-0.44102 1.6371 9e-3 2.9766-0.0362 2.9766-0.1014s-3.6314-6.3924-8.0698-14.06c-4.4384-7.668-8.0698-14.194-8.0698-14.503 0-0.30868 0.31371-0.808 0.69714-1.1096 0.59043-0.46443 1.0694-0.54837 3.129-0.54837 1.3376 0 3.7325-0.12694 5.3221-0.2821 1.5896-0.15516 4.0808-0.51878 5.5361-0.80804 1.4552-0.28927 4.0284-0.98619 5.7182-1.5487s4.0115-1.5019 5.1594-2.0875c1.6522-0.74276 4.7154-2.6553 4.7154-2.6553s-0.72275 1.8712-1.535 3.4979-2.2822 4.0293-3.2666 5.339-2.8246 3.3979-4.0894 4.6406c-1.2648 1.2426-3.2338 2.9319-4.3755 3.754s-2.7416 1.8955-3.5552 2.3855l-1.4793 0.89078 6.6017 11.363c3.6309 6.2494 7.0308 12.245 7.5552 13.324 0.79957 1.6443 0.97205 2.3138 1.0682 4.1464 0.0903 1.7204-5e-3 2.5699-0.44644 3.9922-0.30863 0.9937-1.0175 2.4616-1.5752 3.2619-0.55774 0.80037-1.6981 2.0089-2.5341 2.6857-0.836 0.67678-2.255 1.5868-3.1532 2.0223-0.89828 0.4355-2.4148 0.98311-3.3699 1.2169-1.0131 0.24797-2.7769 0.41783-4.2333 0.40767z"/>
        </mask>
    </defs>
    <g stroke-width=".26458" transform="translate(192.16 -115.84)">
        <path fill="white" d="m-159.61 181.88c-1.9091-0.0131-4.412-0.19367-5.562-0.40135s-3.1379-0.72835-4.4175-1.157-3.3775-1.3073-4.6621-1.9525c-1.2846-0.64516-3.2853-1.88-4.4461-2.7442s-2.9537-2.4232-3.9844-3.4646-2.5534-2.8371-3.3838-3.9904c-0.83041-1.1533-2.0339-3.1487-2.6744-4.4341-0.64052-1.2854-1.467-3.268-1.8365-4.4056s-0.87239-3.1022-1.1174-4.3656c-0.28921-1.4914-0.44376-3.5964-0.44063-6.0013 4e-3 -2.77 0.14903-4.387 0.57669-6.4118 0.31453-1.4892 0.88074-3.5728 1.2582-4.6302 0.3775-1.0574 1.1772-2.875 1.7771-4.0392 0.59989-1.1642 1.9554-3.2664 3.0123-4.6717 1.0569-1.4052 2.7259-3.294 3.7089-4.1973 0.98301-0.90326 2.5017-2.1536 3.3748-2.7784 0.87312-0.62488 2.4986-1.6274 3.6122-2.2279 1.1136-0.60048 3.0186-1.4548 4.2333-1.8985 1.2147-0.44368 3.3397-1.0524 4.7222-1.3527 1.8757-0.40746 3.4871-0.54811 6.35-0.5542 2.1101-5e-3 4.6104 0.26763 5.5562 0.44303 0.94589 0.17541 3.0482 0.60815 4.6717 1.1233l2.9519 0.93671 1.1355-0.5793c1.4464-0.7197 4.0558-2.3403 4.0558-2.3403s0.32127 1.5742 0.58326 3.3675l0.47635 3.2606 1.2404 0.9105c0.68219 0.50077 2.1985 1.9227 3.3696 3.1599 1.1711 1.2372 2.7363 3.1699 3.4782 4.2949s1.7583 2.9032 2.2586 3.9515c0.50032 1.0483 1.1993 2.7747 1.5532 3.8365s0.84949 2.883 1.1012 4.0472c0.32455 1.501 0.4593 3.3479 0.46331 6.35 4e-3 3.062-0.1222 4.819-0.4564 6.35-0.25413 1.1642-0.81527 3.1788-1.247 4.4768s-1.2831 3.3178-1.892 4.4883-1.8162 3.0849-2.6828 4.2544c-0.86663 1.1695-2.5368 3.0613-3.7114 4.204-1.1747 1.1427-3.1765 2.7739-4.4485 3.6249-1.272 0.85093-3.177 1.9562-4.2333 2.4561-1.0563 0.49994-2.9122 1.2213-4.1243 1.603s-3.222 0.87155-4.4664 1.0886c-1.3052 0.2276-3.7316 0.38453-5.7338 0.37084z" mask="url(#mask)"/>
    </g>
</svg>
