<svg xmlns="http://www.w3.org/2000/svg" viewBox="0 0 91.209 91.209">
    <defs>
        <style>
            * { fill: white; }
        </style>
    </defs>
    <g transform="translate(-348.866 -261.125)">
        <path d="M394.313,261.125a45.6,45.6,0,0,0-45.447,41.947l24.443,10.106a12.83,12.83,0,0,1,7.265-2.245q.363,0,.72.02l10.87-15.755c0-.075,0-.148,0-.223a17.2,17.2,0,1,1,17.2,17.2c-.132,0-.261,0-.391-.006l-15.5,11.062c.009.2.015.406.015.611a12.909,12.909,0,0,1-25.566,2.543l-17.48-7.227a45.6,45.6,0,1,0,43.876-58.033Z"/>
        <path d="M377.445,330.323l-5.6-2.314a9.688,9.688,0,1,0,5.3-13.245l5.787,2.392a7.132,7.132,0,1,1-5.487,13.167Z"/>
        <path d="M420.821,294.975a11.46,11.46,0,1,0-11.459,11.459A11.473,11.473,0,0,0,420.821,294.975Zm-20.049-.02a8.609,8.609,0,1,1,8.609,8.609A8.608,8.608,0,0,1,400.772,294.955Z"/>
    </g>
</svg>
